<svg width="164" height="114" viewBox="0 0 164 114" fill="none" xmlns="http://www.w3.org/2000/svg">
<g clip-path="url(#clip0_4512_9941)">
<path d="M152.221 113.584C149.905 112.043 148.739 109.11 148.693 106.338C148.678 105.409 148.913 104.331 149.75 103.917C149.99 103.799 150.258 103.749 150.524 103.772C150.79 103.796 151.045 103.892 151.26 104.05C151.475 104.208 151.642 104.423 151.743 104.669C151.843 104.916 151.873 105.185 151.83 105.448C152.14 104.543 152.542 103.673 153.031 102.85C153.445 102.154 154.026 101.429 154.836 101.363C155.776 101.286 156.561 102.195 156.695 103.124C156.828 104.053 156.488 104.978 156.154 105.856C156.248 105.458 156.441 105.09 156.715 104.786C156.989 104.482 157.336 104.251 157.723 104.115C158.11 103.978 158.525 103.94 158.93 104.005C159.336 104.069 159.718 104.234 160.043 104.483C160.963 105.189 161.265 106.489 161.034 107.622C160.803 108.754 160.124 109.745 159.373 110.627C158.492 111.66 157.472 112.605 156.251 113.205C155.03 113.805 153.586 114.034 152.287 113.627L152.221 113.584Z" fill="#F2F2F2"/>
<path d="M120.548 76.4616C120.866 76.3038 121.146 76.0784 121.368 75.8012C121.59 75.5241 121.747 75.2019 121.831 74.8575C121.914 74.5131 121.92 74.1547 121.848 73.8077C121.777 73.4606 121.63 73.1333 121.418 72.8489L127.092 45.4373L121.797 45.3679L117.857 72.4317C117.401 72.8179 117.102 73.3574 117.019 73.9479C116.935 74.5384 117.072 75.1389 117.404 75.6357C117.735 76.1324 118.238 76.4909 118.818 76.6431C119.397 76.7953 120.013 76.7307 120.548 76.4616Z" fill="#FFB8B8"/>
<path d="M146.337 75.0381C146.597 74.7962 146.801 74.5006 146.934 74.1719C147.066 73.8433 147.125 73.4897 147.106 73.136C147.086 72.7823 146.989 72.4372 146.821 72.1249C146.653 71.8126 146.419 71.5407 146.134 71.3284L143.697 43.4468L138.603 44.8862L142.602 71.9415C142.275 72.4415 142.144 73.0434 142.233 73.633C142.323 74.2227 142.627 74.7592 143.087 75.1409C143.548 75.5226 144.133 75.7229 144.732 75.704C145.331 75.685 145.902 75.4481 146.337 75.0381Z" fill="#FFB8B8"/>
<path d="M129.998 110.999L127.219 110.998L125.897 100.333L129.999 100.333L129.998 110.999Z" fill="#FFB8B8"/>
<path d="M125.235 110.208H130.594V113.566H121.86C121.86 112.675 122.216 111.821 122.849 111.192C123.481 110.562 124.34 110.208 125.235 110.208Z" fill="#2F2E41"/>
<path d="M142.464 110.999L139.686 110.998L138.364 100.333L142.465 100.333L142.464 110.999Z" fill="#FFB8B8"/>
<path d="M137.701 110.208H143.06V113.566H134.327C134.327 112.675 134.682 111.821 135.315 111.192C135.948 110.562 136.806 110.208 137.701 110.208Z" fill="#2F2E41"/>
<path d="M130.718 34.7986C133.793 34.7986 136.285 32.3185 136.285 29.2592C136.285 26.1999 133.793 23.7198 130.718 23.7198C127.644 23.7198 125.151 26.1999 125.151 29.2592C125.151 32.3185 127.644 34.7986 130.718 34.7986Z" fill="#FFB8B8"/>
<path d="M138.544 104.269C138.318 104.268 138.098 104.189 137.924 104.046C137.749 103.902 137.629 103.703 137.585 103.482L133.822 84.1072C133.787 83.9298 133.69 83.7706 133.548 83.6584C133.405 83.5462 133.227 83.4885 133.046 83.4958C132.864 83.503 132.692 83.5748 132.559 83.698C132.426 83.8212 132.342 83.9877 132.322 84.1673L130.214 103.04C130.19 103.27 130.083 103.484 129.913 103.642C129.743 103.8 129.521 103.893 129.289 103.902L126.128 104.045C125.999 104.052 125.871 104.033 125.75 103.989C125.629 103.946 125.518 103.878 125.424 103.791C125.329 103.705 125.252 103.601 125.198 103.485C125.144 103.369 125.113 103.243 125.108 103.115L123.896 73.9628C123.89 73.8156 123.917 73.6689 123.977 73.5338C124.036 73.3988 124.125 73.279 124.238 73.1838L124.939 72.5887C125.116 72.4389 125.34 72.3565 125.573 72.3564H141.955C142.214 72.3567 142.462 72.4592 142.645 72.6413C142.828 72.8233 142.931 73.0702 142.931 73.3277V103.15C142.931 103.401 142.834 103.642 142.66 103.822C142.486 104.003 142.249 104.11 141.997 104.121L138.586 104.268C138.572 104.269 138.558 104.269 138.544 104.269Z" fill="#2F2E41"/>
<path d="M130.154 76.5979C127.506 76.5981 125.171 75.8958 123.992 73.8476C123.894 73.6789 123.847 73.4849 123.859 73.2901L125.34 50.7645C125.352 50.5823 125.298 50.402 125.186 50.2569L121.031 44.8354C120.953 44.7338 120.896 44.6179 120.863 44.4944C120.831 44.3708 120.823 44.242 120.84 44.1154C120.857 43.9888 120.9 43.8668 120.964 43.7565C121.029 43.6462 121.115 43.5497 121.218 43.4725L127.451 38.7734C127.582 38.6744 127.677 38.536 127.723 38.3788L127.904 37.7465C127.961 37.5495 128.078 37.3753 128.24 37.2488C128.402 37.1224 128.6 37.0502 128.805 37.0427L133.379 36.8675C133.532 36.8624 133.683 36.8926 133.822 36.9558C133.961 37.019 134.083 37.1134 134.179 37.2315L134.666 37.8369C134.728 37.9142 134.805 37.9786 134.892 38.0264L142.541 42.2327C142.692 42.316 142.818 42.4375 142.907 42.585C142.995 42.7325 143.043 42.9007 143.045 43.0724L143.045 43.0859L143.042 43.0988C141.259 50.497 141.359 59.848 143.358 72.5277C143.363 72.7211 143.31 72.9116 143.206 73.0749C143.102 73.2382 142.951 73.3668 142.773 73.4442C141.117 74.1577 135.091 76.5979 130.154 76.5979Z" fill="#007B5C"/>
<path d="M125.496 53.3625H120.315C120.182 53.3627 120.051 53.3358 119.929 53.2836C119.806 53.2314 119.696 53.1548 119.605 53.0587C119.514 52.9626 119.443 52.8489 119.398 52.7247C119.352 52.6004 119.333 52.4682 119.341 52.3362C119.418 51.0228 119.57 48.5251 119.722 46.5553C119.941 43.7208 122.732 42.3256 122.76 42.3117L122.815 42.2852L124.699 43.4754L126.453 52.2009C126.481 52.3418 126.478 52.4872 126.443 52.6266C126.408 52.766 126.342 52.8959 126.251 53.007C126.159 53.1181 126.044 53.2076 125.914 53.2691C125.783 53.3306 125.64 53.3625 125.496 53.3625Z" fill="#007B5C"/>
<path d="M139.693 52.8813C139.556 52.8804 139.421 52.851 139.297 52.795C139.172 52.739 139.061 52.6576 138.97 52.5561C138.879 52.4546 138.81 52.3353 138.768 52.2057C138.727 52.0762 138.713 51.9394 138.727 51.8042L139.683 43.0511L141.531 41.7048L141.573 41.7095C141.593 41.7118 143.56 41.9563 144.442 44.1493C145.07 45.7109 146.029 48.5972 146.544 50.1786C146.586 50.3057 146.6 50.44 146.587 50.5729C146.574 50.7059 146.533 50.8347 146.468 50.9513C146.402 51.0679 146.313 51.1697 146.206 51.2505C146.099 51.3312 145.976 51.3891 145.846 51.4206L139.928 52.8528C139.851 52.8717 139.772 52.8812 139.693 52.8813Z" fill="#007B5C"/>
<path d="M130.845 34.8372C132.036 32.9627 130.549 27.8029 127.31 27.6683C126.562 27.6372 126.275 26.5545 126.021 25.854C125.892 25.4479 125.857 25.0177 125.92 24.5964C125.984 24.175 126.143 23.7736 126.386 23.4229C126.881 22.724 127.562 22.1765 128.352 21.8423C129.242 21.4357 130.209 21.2243 131.187 21.2223C132.166 21.2203 133.134 21.4279 134.025 21.8309C134.916 22.234 135.709 22.823 136.352 23.5581C136.994 24.2932 137.469 25.1571 137.746 26.0912C138.023 27.0253 138.095 28.0078 137.957 28.9719C137.818 29.9361 137.473 30.8594 136.945 31.6791C136.416 32.4988 135.716 33.1958 134.893 33.7227C134.07 34.2497 133.143 34.5943 132.174 34.7332L130.845 34.8372Z" fill="#2F2E41"/>
<path d="M111.967 0H1.58658C1.16594 0.000464433 0.762655 0.166947 0.465214 0.462919C0.167773 0.75889 0.000466739 1.16018 0 1.57874V76.0053C0.000467338 76.4238 0.167773 76.8251 0.465214 77.1211C0.762655 77.4171 1.16594 77.5835 1.58658 77.584H111.967C112.388 77.5835 112.791 77.4171 113.089 77.1211C113.386 76.8251 113.554 76.4238 113.554 76.0053V1.57874C113.554 1.16018 113.386 0.75889 113.089 0.462919C112.791 0.166947 112.388 0.000464433 111.967 0ZM113.101 76.0053C113.101 76.3043 112.981 76.5911 112.769 76.8025C112.556 77.014 112.268 77.1328 111.967 77.1329H1.58658C1.28606 77.1328 0.997873 77.014 0.785369 76.8025C0.572864 76.5911 0.45343 76.3043 0.45331 76.0053V1.57874C0.45343 1.2797 0.572864 0.992946 0.785369 0.781491C0.997873 0.570037 1.28606 0.451189 1.58658 0.45107H111.967C112.268 0.451189 112.556 0.570037 112.769 0.781491C112.981 0.992946 113.101 1.2797 113.101 1.57874V76.0053Z" fill="#3F3D56"/>
<path d="M113.327 6.32397H0.226562V6.77602H113.327V6.32397Z" fill="#3F3D56"/>
<path d="M4.07966 4.7362C4.83073 4.7362 5.43959 4.13035 5.43959 3.38299C5.43959 2.63564 4.83073 2.02979 4.07966 2.02979C3.32859 2.02979 2.71973 2.63564 2.71973 3.38299C2.71973 4.13035 3.32859 4.7362 4.07966 4.7362Z" fill="#3F3D56"/>
<path d="M7.98981 4.7362C8.74088 4.7362 9.34974 4.13035 9.34974 3.38299C9.34974 2.63564 8.74088 2.02979 7.98981 2.02979C7.23874 2.02979 6.62988 2.63564 6.62988 3.38299C6.62988 4.13035 7.23874 4.7362 7.98981 4.7362Z" fill="#3F3D56"/>
<path d="M11.8995 4.7362C12.6506 4.7362 13.2594 4.13035 13.2594 3.38299C13.2594 2.63564 12.6506 2.02979 11.8995 2.02979C11.1484 2.02979 10.5396 2.63564 10.5396 3.38299C10.5396 4.13035 11.1484 4.7362 11.8995 4.7362Z" fill="#3F3D56"/>
<path d="M91.5291 21.7561H21.2661C20.3343 21.7561 19.4408 21.3878 18.7819 20.7322C18.1231 20.0766 17.7529 19.1875 17.7529 18.2603C17.7529 17.3332 18.1231 16.444 18.7819 15.7884C19.4408 15.1328 20.3343 14.7645 21.2661 14.7645H91.5291C92.4608 14.7645 93.3544 15.1328 94.0133 15.7884C94.6721 16.444 95.0422 17.3332 95.0422 18.2603C95.0422 19.1875 94.6721 20.0766 94.0133 20.7322C93.3544 21.3878 92.4608 21.7561 91.5291 21.7561ZM21.2661 15.2156C20.4546 15.2156 19.6763 15.5364 19.1024 16.1074C18.5286 16.6784 18.2062 17.4528 18.2062 18.2603C18.2062 19.0678 18.5286 19.8423 19.1024 20.4133C19.6763 20.9843 20.4546 21.305 21.2661 21.305H91.5291C92.3406 21.305 93.1189 20.9843 93.6927 20.4133C94.2666 19.8423 94.5889 19.0678 94.5889 18.2603C94.5889 17.4528 94.2666 16.6784 93.6927 16.1074C93.1189 15.5364 92.3406 15.2156 91.5291 15.2156H21.2661Z" fill="#3F3D56"/>
<path d="M39.3986 39.5734H25.7993C24.8675 39.5734 23.974 39.2051 23.3151 38.5495C22.6563 37.8939 22.2861 37.0047 22.2861 36.0776C22.2861 35.1504 22.6563 34.2613 23.3151 33.6057C23.974 32.9501 24.8675 32.5818 25.7993 32.5818H39.3986C40.3303 32.5818 41.2239 32.9501 41.8827 33.6057C42.5416 34.2613 42.9117 35.1504 42.9117 36.0776C42.9117 37.0047 42.5416 37.8939 41.8827 38.5495C41.2239 39.2051 40.3303 39.5734 39.3986 39.5734ZM25.7993 33.0329C24.9878 33.0329 24.2095 33.3536 23.6357 33.9246C23.0618 34.4956 22.7394 35.2701 22.7394 36.0776C22.7394 36.8851 23.0618 37.6595 23.6357 38.2305C24.2095 38.8015 24.9878 39.1223 25.7993 39.1223H39.3986C40.2101 39.1223 40.9884 38.8015 41.5622 38.2305C42.136 37.6595 42.4584 36.8851 42.4584 36.0776C42.4584 35.2701 42.136 34.4956 41.5622 33.9246C40.9884 33.3536 40.2101 33.0329 39.3986 33.0329H25.7993Z" fill="#3F3D56"/>
<path d="M39.3986 51.3013H25.7993C24.8675 51.3013 23.974 50.933 23.3151 50.2774C22.6563 49.6218 22.2861 48.7326 22.2861 47.8055C22.2861 46.8783 22.6563 45.9892 23.3151 45.3336C23.974 44.678 24.8675 44.3097 25.7993 44.3097H39.3986C40.3303 44.3097 41.2239 44.678 41.8827 45.3336C42.5416 45.9892 42.9117 46.8783 42.9117 47.8055C42.9117 48.7326 42.5416 49.6218 41.8827 50.2774C41.2239 50.933 40.3303 51.3013 39.3986 51.3013ZM25.7993 44.7608C24.9878 44.7608 24.2095 45.0815 23.6357 45.6525C23.0618 46.2235 22.7394 46.998 22.7394 47.8055C22.7394 48.613 23.0618 49.3874 23.6357 49.9584C24.2095 50.5294 24.9878 50.8502 25.7993 50.8502H39.3986C40.2101 50.8502 40.9884 50.5294 41.5622 49.9584C42.136 49.3874 42.4584 48.613 42.4584 47.8055C42.4584 46.998 42.136 46.2235 41.5622 45.6525C40.9884 45.0815 40.2101 44.7608 39.3986 44.7608H25.7993Z" fill="#3F3D56"/>
<path d="M39.3986 63.0289H25.7993C24.8675 63.0289 23.974 62.6606 23.3151 62.005C22.6563 61.3495 22.2861 60.4603 22.2861 59.5331C22.2861 58.606 22.6563 57.7168 23.3151 57.0612C23.974 56.4057 24.8675 56.0374 25.7993 56.0374H39.3986C40.3303 56.0374 41.2239 56.4057 41.8827 57.0612C42.5416 57.7168 42.9117 58.606 42.9117 59.5331C42.9117 60.4603 42.5416 61.3495 41.8827 62.005C41.2239 62.6606 40.3303 63.0289 39.3986 63.0289ZM25.7993 56.4884C24.9878 56.4884 24.2095 56.8092 23.6357 57.3802C23.0618 57.9512 22.7394 58.7256 22.7394 59.5331C22.7394 60.3407 23.0618 61.1151 23.6357 61.6861C24.2095 62.2571 24.9878 62.5779 25.7993 62.5779H39.3986C40.2101 62.5779 40.9884 62.2571 41.5622 61.6861C42.136 61.1151 42.4584 60.3407 42.4584 59.5331C42.4584 58.7256 42.136 57.9512 41.5622 57.3802C40.9884 56.8092 40.2101 56.4884 39.3986 56.4884H25.7993Z" fill="#3F3D56"/>
<path d="M41.4386 19.8391H22.3996C21.9788 19.8391 21.5752 19.6728 21.2777 19.3767C20.9801 19.0807 20.813 18.6791 20.813 18.2604C20.813 17.8417 20.9801 17.4401 21.2777 17.144C21.5752 16.848 21.9788 16.6816 22.3996 16.6816H41.4386C41.8594 16.6816 42.2629 16.848 42.5605 17.144C42.858 17.4401 43.0252 17.8417 43.0252 18.2604C43.0252 18.6791 42.858 19.0807 42.5605 19.3767C42.2629 19.6728 41.8594 19.8391 41.4386 19.8391Z" fill="#007B5C"/>
<path d="M89.1496 19.0497C88.8358 19.0497 88.529 18.9571 88.2681 18.7836C88.0072 18.6102 87.8038 18.3636 87.6838 18.0751C87.5637 17.7866 87.5323 17.4692 87.5935 17.163C87.6547 16.8567 87.8058 16.5754 88.0277 16.3546C88.2496 16.1338 88.5323 15.9835 88.84 15.9225C89.1478 15.8616 89.4668 15.8929 89.7567 16.0124C90.0466 16.1319 90.2944 16.3342 90.4688 16.5939C90.6431 16.8535 90.7362 17.1587 90.7362 17.471C90.7357 17.8895 90.5684 18.2908 90.2709 18.5868C89.9735 18.8827 89.5702 19.0492 89.1496 19.0497ZM89.1496 16.3433C88.9254 16.3433 88.7063 16.4094 88.52 16.5333C88.3336 16.6572 88.1883 16.8334 88.1026 17.0394C88.0168 17.2455 87.9943 17.4722 88.0381 17.691C88.0818 17.9097 88.1897 18.1106 88.3482 18.2683C88.5067 18.4261 88.7086 18.5334 88.9285 18.577C89.1483 18.6205 89.3762 18.5981 89.5833 18.5128C89.7903 18.4274 89.9673 18.2829 90.0919 18.0975C90.2164 17.912 90.2828 17.694 90.2828 17.471C90.2825 17.172 90.163 16.8854 89.9505 16.6739C89.7381 16.4625 89.45 16.3436 89.1496 16.3433Z" fill="#3F3D56"/>
<path d="M91.6038 20.4779C91.574 20.4779 91.5445 20.4721 91.517 20.4608C91.4895 20.4494 91.4646 20.4328 91.4436 20.4118L89.8511 18.8271C89.83 18.8062 89.8133 18.7813 89.8019 18.7539C89.7905 18.7266 89.7847 18.6973 89.7847 18.6677C89.7847 18.638 89.7905 18.6087 89.8019 18.5813C89.8133 18.554 89.83 18.5291 89.8511 18.5082C89.8721 18.4872 89.8971 18.4706 89.9246 18.4593C89.9521 18.448 89.9815 18.4421 90.0113 18.4421C90.0411 18.4421 90.0705 18.448 90.098 18.4593C90.1255 18.4706 90.1505 18.4872 90.1716 18.5082L91.7641 20.0929C91.7958 20.1244 91.8173 20.1646 91.8261 20.2084C91.8348 20.2521 91.8303 20.2974 91.8132 20.3386C91.796 20.3798 91.767 20.4151 91.7297 20.4398C91.6925 20.4646 91.6486 20.4779 91.6038 20.4779Z" fill="#3F3D56"/>
<path d="M88.2428 38.2202H80.5365C79.9655 38.2202 79.4178 37.9945 79.014 37.5927C78.6102 37.1909 78.3833 36.6459 78.3833 36.0776C78.3833 35.5094 78.6102 34.9644 79.014 34.5626C79.4178 34.1608 79.9655 33.9351 80.5365 33.9351H88.2428C88.8138 33.9351 89.3615 34.1608 89.7653 34.5626C90.1691 34.9644 90.396 35.5094 90.396 36.0776C90.396 36.6459 90.1691 37.1909 89.7653 37.5927C89.3615 37.9945 88.8138 38.2202 88.2428 38.2202Z" fill="#007B5C"/>
<path d="M88.2428 49.948H80.5365C79.9655 49.948 79.4178 49.7223 79.014 49.3205C78.6102 48.9186 78.3833 48.3737 78.3833 47.8054C78.3833 47.2372 78.6102 46.6922 79.014 46.2904C79.4178 45.8886 79.9655 45.6628 80.5365 45.6628H88.2428C88.8138 45.6628 89.3615 45.8886 89.7653 46.2904C90.1691 46.6922 90.396 47.2372 90.396 47.8054C90.396 48.3737 90.1691 48.9186 89.7653 49.3205C89.3615 49.7223 88.8138 49.948 88.2428 49.948Z" fill="#007B5C"/>
<path d="M88.2428 61.6758H80.5365C79.9655 61.6758 79.4178 61.4501 79.014 61.0482C78.6102 60.6464 78.3833 60.1015 78.3833 59.5332C78.3833 58.965 78.6102 58.42 79.014 58.0182C79.4178 57.6164 79.9655 57.3906 80.5365 57.3906H88.2428C88.8138 57.3906 89.3615 57.6164 89.7653 58.0182C90.1691 58.42 90.396 58.965 90.396 59.5332C90.396 60.1015 90.1691 60.6464 89.7653 61.0482C89.3615 61.4501 88.8138 61.6758 88.2428 61.6758Z" fill="#007B5C"/>
<path d="M163.774 114.001H107.563C107.503 114.001 107.445 113.977 107.403 113.935C107.36 113.892 107.336 113.835 107.336 113.775C107.336 113.715 107.36 113.658 107.403 113.615C107.445 113.573 107.503 113.549 107.563 113.549H163.774C163.834 113.549 163.891 113.573 163.934 113.615C163.976 113.658 164 113.715 164 113.775C164 113.835 163.976 113.892 163.934 113.935C163.891 113.977 163.834 114.001 163.774 114.001Z" fill="#3F3D56"/>
</g>
<defs>
<clipPath id="clip0_4512_9941">
<rect width="164" height="114" fill="white"/>
</clipPath>
</defs>
</svg>
